<svg xmlns="http://www.w3.org/2000/svg" width="256" height="256" viewBox="0 0 100 100"><rect width="100" height="100" rx="20" fill="#7d6ee7"></rect><path fill="#fff" d="M68.63 32.94L68.63 26.46L87.80 25.74L87.80 32.13L82.22 33.93L83.84 32.58L72.41 74.34L58.82 74.34L49.10 35.64L51.53 35.73L40.55 74.34L26.96 74.34L16.34 33.12L17.69 34.29L12.20 32.94L12.20 26.46L33.44 25.74L33.44 32.13L26.87 33.93L28.22 32.94L35.78 66.78L33.71 66.78L44.42 26.37L57.29 25.65L67.19 67.23L65.30 67.23L73.58 33.21L74.75 34.38L68.63 32.94Z"></path></svg>